<?xml version="1.0" encoding="UTF-8"?>
<svg xmlns="http://www.w3.org/2000/svg" viewBox="0 0 517.84 689.24">
  <defs>
    <style>
      .cls-1 {
        fill: #30b1e6;
      }

      .cls-2 {
        fill: #ffefe6;
        stroke: #f16723;
        stroke-linejoin: round;
        stroke-width: 5px;
      }

      .cls-3 {
        fill: #231f20;
      }

      .cls-4 {
        fill: #fff;
      }

      .cls-5 {
        fill: #e2e2e2;
      }

      .cls-6 {
        fill: #f16723;
      }
    </style>
  </defs>
  <g id="Layer_6" data-name="Layer 6">
    <g>
      <path class="cls-1" d="M18.09,675.73c-2.69,0-5.06-.81-7.13-2.43-2.07-1.62-3.69-3.92-4.86-6.91-1.17-2.98-1.76-6.51-1.76-10.57s.58-7.72,1.73-10.65c1.15-2.93,2.76-5.21,4.83-6.83,2.07-1.62,4.46-2.43,7.19-2.43,2.34,0,4.45.68,6.33,2.04,1.88,1.36,3.15,3.1,3.84,5.21h-.77v-16.59c0-2.21.49-3.92,1.47-5.13.98-1.21,2.39-1.81,4.22-1.81s3.24.61,4.22,1.81c.98,1.21,1.47,2.92,1.47,5.13v42.06c0,2.21-.48,3.92-1.44,5.13-.96,1.21-2.36,1.81-4.19,1.81s-3.18-.61-4.16-1.81c-.98-1.21-1.47-2.92-1.47-5.13v-4.55l.7,3.86c-.55,2.32-1.79,4.19-3.71,5.63-1.92,1.44-4.09,2.16-6.52,2.16ZM21.74,665.46c1.15,0,2.16-.32,3.04-.96.87-.64,1.57-1.69,2.08-3.13.51-1.44.77-3.29.77-5.56,0-3.45-.55-5.93-1.66-7.45-1.11-1.52-2.52-2.28-4.22-2.28-1.15,0-2.17.33-3.07,1-.9.67-1.6,1.71-2.11,3.13-.51,1.42-.77,3.28-.77,5.6,0,3.4.55,5.85,1.66,7.37,1.11,1.52,2.54,2.28,4.28,2.28Z"/>
      <path class="cls-1" d="M62.59,675.73c-3.84,0-7.15-.82-9.94-2.47-2.79-1.65-4.93-3.96-6.43-6.95-1.49-2.98-2.24-6.48-2.24-10.5s.71-7.36,2.14-10.34c1.43-2.98,3.39-5.33,5.88-7.02s5.34-2.55,8.54-2.55c2.34,0,4.48.46,6.39,1.39,1.92.93,3.55,2.25,4.89,3.97,1.34,1.72,2.38,3.79,3.1,6.21.72,2.42,1.09,5.15,1.09,8.18,0,.98-.23,1.72-.7,2.24-.47.52-1.19.77-2.17.77h-19.63v-6.56h14.13l-.96,1c0-1.9-.21-3.46-.64-4.67-.43-1.21-1.06-2.11-1.89-2.7-.83-.59-1.87-.89-3.1-.89-1.32,0-2.47.37-3.45,1.12-.98.75-1.72,1.84-2.21,3.28-.49,1.44-.74,3.24-.74,5.4v.62c0,3.71.67,6.33,2.01,7.87,1.34,1.54,3.42,2.31,6.23,2.31.94,0,2.01-.13,3.23-.39,1.21-.26,2.38-.64,3.48-1.16,1.11-.51,2.07-.6,2.88-.27.81.33,1.44.89,1.89,1.66.45.77.7,1.69.77,2.74.06,1.05-.13,2.04-.58,2.97-.45.93-1.18,1.65-2.21,2.16-1.45.82-3.02,1.46-4.7,1.89-1.68.44-3.38.66-5.08.66Z"/>
      <path class="cls-1" d="M101.66,675.73c-2.39,0-4.54-.72-6.46-2.16-1.92-1.44-3.18-3.32-3.77-5.63l.7-3.16v3.86c0,2.21-.48,3.92-1.44,5.13s-2.33,1.81-4.12,1.81-3.23-.61-4.19-1.81c-.96-1.21-1.44-2.92-1.44-5.13v-42.06c0-2.21.48-3.92,1.44-5.13.96-1.21,2.38-1.81,4.25-1.81s3.19.61,4.19,1.81c1,1.21,1.5,2.92,1.5,5.13v16.59h-.83c.68-2.11,1.96-3.85,3.84-5.21,1.88-1.36,3.98-2.04,6.33-2.04,2.73,0,5.11.81,7.16,2.43,2.05,1.62,3.65,3.9,4.83,6.83,1.17,2.93,1.76,6.48,1.76,10.65s-.58,7.59-1.73,10.57c-1.15,2.98-2.77,5.29-4.86,6.91-2.09,1.62-4.48,2.43-7.16,2.43ZM98.08,665.46c1.15,0,2.16-.32,3.04-.96.87-.64,1.57-1.69,2.08-3.13.51-1.44.77-3.29.77-5.56,0-3.45-.55-5.93-1.66-7.45-1.11-1.52-2.52-2.28-4.22-2.28-1.19,0-2.24.33-3.13,1-.9.67-1.59,1.71-2.08,3.13-.49,1.42-.74,3.28-.74,5.6,0,3.4.55,5.85,1.66,7.37,1.11,1.52,2.54,2.28,4.28,2.28Z"/>
      <path class="cls-1" d="M132.54,675.73c-4.14,0-7.16-1.34-9.08-4.01-1.92-2.67-2.88-6.69-2.88-12.04v-33.11c0-2.21.48-3.92,1.44-5.13.96-1.21,2.38-1.81,4.25-1.81s3.19.61,4.19,1.81c1,1.21,1.5,2.92,1.5,5.13v32.65c0,1.9.31,3.29.93,4.17.62.88,1.42,1.31,2.4,1.31.3,0,.61-.04.93-.12s.65-.12.99-.12c.77-.05,1.33.26,1.69.93.36.67.54,2.03.54,4.09,0,1.8-.3,3.14-.9,4.01-.6.88-1.49,1.47-2.69,1.78-.38.05-.9.14-1.53.27-.64.13-1.24.19-1.79.19Z"/>
      <path class="cls-1" d="M158.44,675.73c-3.5,0-6.54-.8-9.14-2.39-2.6-1.59-4.63-3.9-6.07-6.91-1.45-3.01-2.17-6.55-2.17-10.61,0-3.09.4-5.85,1.21-8.3.81-2.44,1.98-4.54,3.52-6.29,1.53-1.75,3.37-3.07,5.5-3.97,2.13-.9,4.52-1.35,7.16-1.35,3.5,0,6.54.8,9.14,2.39,2.6,1.6,4.61,3.89,6.04,6.87,1.43,2.98,2.14,6.53,2.14,10.65,0,3.09-.41,5.84-1.21,8.26-.81,2.42-1.98,4.51-3.52,6.29-1.53,1.77-3.37,3.11-5.5,4.01-2.13.9-4.5,1.35-7.1,1.35ZM158.44,665.46c1.15,0,2.16-.32,3.04-.96.87-.64,1.57-1.69,2.08-3.13.51-1.44.77-3.29.77-5.56,0-3.45-.55-5.93-1.66-7.45-1.11-1.52-2.52-2.28-4.22-2.28-1.15,0-2.17.33-3.07,1-.9.67-1.6,1.71-2.11,3.13-.51,1.42-.77,3.28-.77,5.6,0,3.4.55,5.85,1.66,7.37,1.11,1.52,2.54,2.28,4.28,2.28Z"/>
      <path class="cls-1" d="M197.06,675.73c-3.54,0-6.62-.81-9.24-2.43s-4.66-3.94-6.11-6.95c-1.45-3.01-2.17-6.55-2.17-10.61,0-3.09.4-5.85,1.21-8.3.81-2.44,1.99-4.51,3.55-6.21,1.56-1.7,3.41-3.01,5.56-3.94,2.15-.93,4.55-1.39,7.19-1.39,1.24,0,2.54.15,3.9.46,1.36.31,2.77.85,4.22,1.62,1.02.46,1.74,1.17,2.14,2.12.4.95.59,1.97.54,3.05-.04,1.08-.31,2.04-.8,2.89-.49.85-1.12,1.44-1.89,1.78-.77.33-1.64.25-2.62-.27-.68-.46-1.4-.8-2.14-1-.75-.21-1.48-.31-2.21-.31-1.11,0-2.1.22-2.97.66-.87.44-1.61,1.07-2.21,1.89-.6.82-1.06,1.81-1.38,2.97-.32,1.16-.48,2.51-.48,4.05,0,2.93.62,5.25,1.85,6.95,1.24,1.7,2.96,2.55,5.18,2.55.72,0,1.46-.09,2.21-.27.75-.18,1.46-.48,2.14-.89.98-.57,1.85-.68,2.62-.35.77.34,1.38.93,1.85,1.78.47.85.71,1.83.74,2.93.02,1.11-.17,2.14-.58,3.09-.41.95-1.12,1.63-2.14,2.05-1.41.77-2.78,1.31-4.12,1.62s-2.63.46-3.87.46Z"/>
      <path class="cls-1" d="M217.65,675.57c-1.88,0-3.29-.61-4.25-1.81-.96-1.21-1.44-2.92-1.44-5.13v-42.06c0-2.21.48-3.92,1.44-5.13.96-1.21,2.38-1.81,4.25-1.81s3.19.61,4.19,1.81c1,1.21,1.5,2.92,1.5,5.13v25.47h.13l7.8-11.34c1.06-1.54,2.06-2.7,2.97-3.47.92-.77,2.16-1.16,3.74-1.16s2.79.48,3.64,1.43c.85.95,1.3,2.12,1.34,3.51.04,1.39-.41,2.8-1.34,4.25l-8.44,12.04v-4.86l9.4,14.36c.94,1.44,1.32,2.84,1.15,4.21-.17,1.36-.71,2.47-1.63,3.32-.92.85-2.08,1.27-3.48,1.27-1.71,0-3.07-.37-4.09-1.12s-2.02-1.94-3-3.59l-8.06-11.88h-.13v9.65c0,4.63-1.9,6.95-5.69,6.95Z"/>
      <path class="cls-1" d="M265.73,675.73c-3.84,0-7.15-.82-9.94-2.47-2.79-1.65-4.93-3.96-6.43-6.95-1.49-2.98-2.24-6.48-2.24-10.5s.71-7.36,2.14-10.34c1.43-2.98,3.39-5.33,5.88-7.02s5.34-2.55,8.54-2.55c2.34,0,4.48.46,6.39,1.39,1.92.93,3.55,2.25,4.89,3.97s2.38,3.79,3.1,6.21c.72,2.42,1.09,5.15,1.09,8.18,0,.98-.23,1.72-.7,2.24-.47.52-1.19.77-2.17.77h-19.63v-6.56h14.13l-.96,1c0-1.9-.21-3.46-.64-4.67-.43-1.21-1.05-2.11-1.89-2.7-.83-.59-1.87-.89-3.1-.89-1.32,0-2.47.37-3.45,1.12-.98.75-1.72,1.84-2.21,3.28-.49,1.44-.74,3.24-.74,5.4v.62c0,3.71.67,6.33,2.01,7.87,1.34,1.54,3.42,2.31,6.23,2.31.94,0,2.01-.13,3.23-.39,1.21-.26,2.38-.64,3.48-1.16,1.11-.51,2.07-.6,2.88-.27.81.33,1.44.89,1.89,1.66.45.77.7,1.69.77,2.74.06,1.05-.13,2.04-.58,2.97-.45.93-1.18,1.65-2.21,2.16-1.45.82-3.02,1.46-4.7,1.89-1.68.44-3.38.66-5.08.66Z"/>
      <path class="cls-1" d="M289.9,675.57c-1.88,0-3.32-.61-4.32-1.81-1-1.21-1.5-2.92-1.5-5.13v-25.62c0-2.21.48-3.92,1.44-5.13.96-1.21,2.33-1.81,4.12-1.81s3.1.61,4.06,1.81c.96,1.21,1.44,2.92,1.44,5.13v3.16h-.64c.43-3.09,1.52-5.54,3.29-7.37,1.77-1.83,3.97-2.79,6.62-2.89,1.24-.05,2.16.33,2.78,1.16.62.82.95,2.32.99,4.48,0,1.85-.32,3.31-.96,4.36-.64,1.06-1.83,1.71-3.58,1.97l-1.54.15c-2.22.26-3.86,1.02-4.92,2.28-1.07,1.26-1.6,3.13-1.6,5.6v12.73c0,2.21-.48,3.92-1.44,5.13s-2.38,1.81-4.25,1.81Z"/>
      <path class="cls-1" d="M330.18,675.73c-3.16,0-5.78-.61-7.86-1.81-2.09-1.21-3.64-3.01-4.67-5.4s-1.53-5.39-1.53-8.99v-12.58h-2.11c-1.36,0-2.44-.44-3.23-1.31-.79-.87-1.18-2.11-1.18-3.71,0-1.7.39-2.97,1.18-3.82.79-.85,1.86-1.27,3.23-1.27h2.11v-4.86c0-2.21.49-3.92,1.47-5.13.98-1.21,2.39-1.81,4.22-1.81s3.24.61,4.22,1.81c.98,1.21,1.47,2.92,1.47,5.13v4.86h5.24c1.36,0,2.43.42,3.2,1.27.77.85,1.15,2.12,1.15,3.82,0,1.6-.38,2.83-1.15,3.71-.77.88-1.83,1.31-3.2,1.31h-5.24v12.12c0,1.9.36,3.31,1.09,4.21.72.9,1.9,1.35,3.52,1.35.64,0,1.24-.08,1.79-.23.55-.15,1.06-.26,1.53-.31.68,0,1.25.27,1.69.81.45.54.67,1.76.67,3.67,0,1.54-.2,2.84-.61,3.9s-1.1,1.81-2.08,2.28c-.64.31-1.46.55-2.46.73-1,.18-1.82.27-2.46.27Z"/>
      <path class="cls-1" d="M339.07,689.23c-1.32.05-2.38-.23-3.17-.85-.79-.62-1.33-1.39-1.63-2.32-.3-.93-.37-1.87-.22-2.82.15-.95.5-1.78,1.06-2.47s1.28-1.09,2.17-1.2c1.36-.15,2.37-.62,3-1.39.64-.77.96-1.96.96-3.55v-31.64c0-2.21.49-3.92,1.47-5.13.98-1.21,2.39-1.81,4.22-1.81s3.24.61,4.22,1.81c.98,1.21,1.47,2.92,1.47,5.13v30.25c0,3.45-.49,6.34-1.47,8.68-.98,2.34-2.46,4.12-4.44,5.33s-4.53,1.86-7.64,1.97ZM346.87,630.65c-2.05,0-3.61-.57-4.7-1.7-1.09-1.13-1.63-2.75-1.63-4.86s.54-3.81,1.63-4.94,2.65-1.7,4.7-1.7,3.61.57,4.7,1.7,1.63,2.78,1.63,4.94-.54,3.73-1.63,4.86c-1.09,1.13-2.65,1.7-4.7,1.7Z"/>
      <path class="cls-1" d="M376.41,675.73c-3.84,0-7.15-.82-9.94-2.47-2.79-1.65-4.93-3.96-6.43-6.95-1.49-2.98-2.24-6.48-2.24-10.5s.71-7.36,2.14-10.34c1.43-2.98,3.39-5.33,5.88-7.02,2.49-1.7,5.34-2.55,8.54-2.55,2.34,0,4.48.46,6.39,1.39,1.92.93,3.55,2.25,4.89,3.97s2.38,3.79,3.1,6.21c.72,2.42,1.09,5.15,1.09,8.18,0,.98-.23,1.72-.7,2.24-.47.52-1.19.77-2.17.77h-19.63v-6.56h14.13l-.96,1c0-1.9-.21-3.46-.64-4.67-.43-1.21-1.05-2.11-1.89-2.7-.83-.59-1.87-.89-3.1-.89-1.32,0-2.47.37-3.45,1.12-.98.75-1.72,1.84-2.21,3.28-.49,1.44-.74,3.24-.74,5.4v.62c0,3.71.67,6.33,2.01,7.87,1.34,1.54,3.42,2.31,6.23,2.31.94,0,2.01-.13,3.23-.39,1.21-.26,2.38-.64,3.48-1.16,1.11-.51,2.07-.6,2.88-.27.81.33,1.44.89,1.89,1.66.45.77.7,1.69.77,2.74.06,1.05-.13,2.04-.58,2.97-.45.93-1.18,1.65-2.21,2.16-1.45.82-3.02,1.46-4.7,1.89-1.68.44-3.38.66-5.08.66Z"/>
      <path class="cls-1" d="M407.35,675.73c-1.92,0-3.85-.18-5.79-.54-1.94-.36-3.72-.95-5.34-1.78-1.02-.51-1.76-1.22-2.21-2.12-.45-.9-.66-1.84-.64-2.82.02-.98.26-1.86.7-2.66.45-.8,1.04-1.36,1.79-1.7.75-.33,1.59-.29,2.53.12,1.79.82,3.4,1.39,4.83,1.7,1.43.31,2.8.46,4.12.46,1.58,0,2.71-.27,3.39-.81.68-.54,1.02-1.25,1.02-2.12,0-.77-.22-1.36-.67-1.78-.45-.41-1.08-.69-1.89-.85l-7.1-1.31c-2.64-.57-4.69-1.75-6.14-3.55-1.45-1.8-2.17-4.17-2.17-7.1,0-2.62.63-4.9,1.89-6.83,1.26-1.93,2.98-3.43,5.18-4.51,2.2-1.08,4.72-1.62,7.58-1.62,1.92,0,3.67.18,5.24.54,1.58.36,3.13.95,4.67,1.78.89.51,1.53,1.21,1.92,2.08s.53,1.79.45,2.74c-.09.95-.36,1.83-.83,2.62-.47.8-1.09,1.35-1.85,1.66-.77.31-1.62.23-2.56-.23-1.41-.67-2.66-1.16-3.77-1.47s-2.13-.46-3.07-.46c-1.79,0-3.04.28-3.74.85-.7.57-1.05,1.31-1.05,2.24,0,.62.2,1.16.61,1.62.4.46.99.77,1.76.93l7.1,1.39c2.77.57,4.88,1.7,6.33,3.4,1.45,1.7,2.17,4.01,2.17,6.95,0,4.17-1.32,7.41-3.96,9.72-2.64,2.32-6.14,3.47-10.49,3.47Z"/>
      <path class="cls-1" d="M431.58,675.26c-1.96,0-3.52-.71-4.67-2.12-1.15-1.42-1.73-3.23-1.73-5.44s.58-3.92,1.73-5.29c1.15-1.36,2.71-2.05,4.67-2.05s3.48.68,4.57,2.05,1.63,3.12,1.63,5.29-.54,4.03-1.63,5.44c-1.09,1.42-2.61,2.12-4.57,2.12Z"/>
      <path class="cls-1" d="M464.26,675.73c-2.39,0-4.54-.72-6.46-2.16-1.92-1.44-3.18-3.32-3.77-5.63l.7-3.16v3.86c0,2.21-.48,3.92-1.44,5.13-.96,1.21-2.33,1.81-4.12,1.81s-3.23-.61-4.19-1.81-1.44-2.92-1.44-5.13v-42.06c0-2.21.48-3.92,1.44-5.13.96-1.21,2.38-1.81,4.25-1.81s3.19.61,4.19,1.81c1,1.21,1.5,2.92,1.5,5.13v16.59h-.83c.68-2.11,1.96-3.85,3.84-5.21,1.88-1.36,3.99-2.04,6.33-2.04,2.73,0,5.12.81,7.16,2.43,2.05,1.62,3.66,3.9,4.83,6.83,1.17,2.93,1.76,6.48,1.76,10.65s-.58,7.59-1.73,10.57c-1.15,2.98-2.77,5.29-4.86,6.91s-4.48,2.43-7.16,2.43ZM460.68,665.46c1.15,0,2.16-.32,3.04-.96.87-.64,1.57-1.69,2.08-3.13.51-1.44.77-3.29.77-5.56,0-3.45-.55-5.93-1.66-7.45-1.11-1.52-2.52-2.28-4.22-2.28-1.19,0-2.24.33-3.13,1-.9.67-1.59,1.71-2.08,3.13-.49,1.42-.74,3.28-.74,5.6,0,3.4.55,5.85,1.66,7.37,1.11,1.52,2.54,2.28,4.28,2.28Z"/>
      <path class="cls-1" d="M500.32,675.73c-3.84,0-7.15-.82-9.94-2.47-2.79-1.65-4.93-3.96-6.43-6.95-1.49-2.98-2.24-6.48-2.24-10.5s.71-7.36,2.14-10.34c1.43-2.98,3.39-5.33,5.88-7.02,2.49-1.7,5.34-2.55,8.54-2.55,2.34,0,4.48.46,6.39,1.39,1.92.93,3.55,2.25,4.89,3.97s2.38,3.79,3.1,6.21c.72,2.42,1.09,5.15,1.09,8.18,0,.98-.23,1.72-.7,2.24-.47.52-1.19.77-2.17.77h-19.63v-6.56h14.13l-.96,1c0-1.9-.21-3.46-.64-4.67-.43-1.21-1.05-2.11-1.89-2.7-.83-.59-1.87-.89-3.1-.89-1.32,0-2.47.37-3.45,1.12-.98.75-1.72,1.84-2.21,3.28-.49,1.44-.74,3.24-.74,5.4v.62c0,3.71.67,6.33,2.01,7.87,1.34,1.54,3.42,2.31,6.23,2.31.94,0,2.01-.13,3.23-.39,1.21-.26,2.38-.64,3.48-1.16,1.11-.51,2.07-.6,2.88-.27.81.33,1.44.89,1.89,1.66.45.77.7,1.69.77,2.74.06,1.05-.13,2.04-.58,2.97-.45.93-1.18,1.65-2.21,2.16-1.45.82-3.02,1.46-4.7,1.89-1.68.44-3.38.66-5.08.66Z"/>
    </g>
  </g>
  <g id="Layer_5" data-name="Layer 5">
    <rect class="cls-2" x="2.5" y="2.5" width="512.84" height="576.95" rx="70.13" ry="70.13"/>
  </g>
  <g id="Layer_2" data-name="Layer 2">
    <g>
      <path class="cls-1" d="M206.17,181.06c-3.23,0-5.69-1.08-7.38-3.23-1.69-2.15-2.53-5.3-2.53-9.43v-67.69c0-4.13.84-7.28,2.53-9.44,1.68-2.15,4.14-3.23,7.38-3.23h20.12c12.65,0,22.44,4.05,29.35,12.14,6.91,8.09,10.37,19.53,10.37,34.31,0,7.48-.88,14.08-2.63,19.79-1.75,5.72-4.32,10.58-7.69,14.58-3.37,4-7.51,7.04-12.43,9.1-4.92,2.07-10.57,3.1-16.97,3.1h-20.12ZM215.25,161.39h9.9c3.64,0,6.79-.57,9.44-1.72,2.65-1.14,4.85-2.81,6.6-5.01,1.75-2.2,3.06-4.97,3.92-8.31.86-3.34,1.29-7.3,1.29-11.88,0-9.06-1.75-15.79-5.26-20.19-3.51-4.4-8.84-6.6-15.99-6.6h-9.9v53.71Z"/>
      <path class="cls-1" d="M287.25,181.06c-3.23,0-5.69-1.08-7.38-3.23-1.69-2.15-2.53-5.3-2.53-9.43v-67.69c0-4.13.84-7.28,2.53-9.44,1.68-2.15,4.14-3.23,7.38-3.23h35.08c2.34,0,4.14.79,5.42,2.38,1.27,1.58,1.91,3.87,1.91,6.86s-.64,5.43-1.91,7.06c-1.27,1.63-3.08,2.44-5.42,2.44h-26.93v17.68h24.55c2.41,0,4.23.79,5.47,2.38s1.86,3.92,1.86,6.99-.62,5.3-1.86,6.93c-1.24,1.63-3.06,2.44-5.47,2.44h-24.55v19.13h26.93c2.34,0,4.14.81,5.42,2.44,1.27,1.63,1.91,3.94,1.91,6.93s-.64,5.41-1.91,6.99c-1.27,1.58-3.08,2.38-5.42,2.38h-35.08Z"/>
      <path class="cls-1" d="M36.52,339.4c-3.23,0-5.69-1.08-7.38-3.23-1.69-2.16-2.53-5.3-2.53-9.44v-67.69c0-4.13.84-7.28,2.53-9.44,1.68-2.15,4.14-3.23,7.38-3.23h25.17c5.23,0,9.66.97,13.31,2.9,3.64,1.94,6.45,4.71,8.41,8.31,1.96,3.61,2.94,7.87,2.94,12.8,0,5.46-1.22,10.12-3.66,13.99-2.44,3.87-5.73,6.55-9.85,8.05v-2.24c4.88,1.23,8.68,3.78,11.4,7.65,2.72,3.87,4.07,8.93,4.07,15.18,0,8.18-2.29,14.63-6.86,19.33-4.57,4.71-10.85,7.06-18.83,7.06h-26.1ZM44.67,283.32h13.51c3.58,0,6.15-.79,7.74-2.38,1.58-1.58,2.37-4,2.37-7.26s-.79-5.65-2.37-7.19c-1.58-1.54-4.16-2.31-7.74-2.31h-13.51v19.13ZM44.67,321.59h15.47c3.51,0,6.07-.86,7.69-2.57,1.62-1.72,2.42-4.24,2.42-7.59,0-3.52-.81-6.14-2.42-7.85-1.62-1.72-4.18-2.57-7.69-2.57h-15.47v20.59Z"/>
      <path class="cls-1" d="M108.74,339.4c-3.09,0-5.48-1.08-7.17-3.23-1.69-2.16-2.53-5.21-2.53-9.17v-68.48c0-3.96.83-6.99,2.48-9.1,1.65-2.11,4.02-3.17,7.12-3.17s5.26,1.06,6.91,3.17c1.65,2.11,2.48,5.15,2.48,9.1v60.7h25.27c2.61,0,4.61.86,5.98,2.57,1.37,1.72,2.06,4.2,2.06,7.46s-.69,5.76-2.06,7.52c-1.38,1.76-3.37,2.64-5.98,2.64h-34.56Z"/>
      <path class="cls-1" d="M402.74,340.98c-8.05,0-14.96-2-20.74-6-5.78-4-10.23-9.59-13.36-16.76-3.13-7.17-4.69-15.64-4.69-25.4,0-7.3.88-13.88,2.63-19.73,1.75-5.85,4.32-10.86,7.69-15.04,3.37-4.18,7.44-7.43,12.22-9.76,4.78-2.33,10.2-3.5,16.25-3.5,3.1,0,6.34.48,9.75,1.45,3.4.97,6.41,2.33,9.03,4.09,1.99,1.32,3.35,3.01,4.08,5.08.72,2.07.96,4.18.72,6.33-.24,2.16-.84,4.05-1.81,5.67-.96,1.63-2.2,2.75-3.71,3.36-1.51.62-3.2.31-5.05-.92-2-1.32-4.02-2.26-6.09-2.84-2.06-.57-4.2-.86-6.4-.86-4.2,0-7.72,1.04-10.57,3.1-2.85,2.07-5,5.06-6.45,8.97-1.44,3.92-2.17,8.77-2.17,14.58s.72,10.69,2.17,14.65,3.59,6.97,6.45,9.04c2.85,2.07,6.38,3.1,10.57,3.1,1.92,0,3.9-.26,5.93-.79,2.03-.53,4.04-1.41,6.04-2.64,1.99-1.14,3.82-1.47,5.47-.99,1.65.48,2.97,1.54,3.97,3.17,1,1.63,1.63,3.48,1.91,5.54.27,2.07.05,4.11-.67,6.14-.72,2.03-1.98,3.65-3.77,4.88-2.41,1.85-5.38,3.32-8.92,4.42-3.54,1.1-7.03,1.65-10.47,1.65Z"/>
      <path class="cls-1" d="M446.48,340.72c-3.09,0-5.47-1.1-7.12-3.3-1.65-2.2-2.48-5.23-2.48-9.1v-70.86c0-4.05.83-7.13,2.48-9.24s4.02-3.17,7.12-3.17,5.26,1.06,6.91,3.17,2.48,5.19,2.48,9.24v28.77h.21l25.07-35.36c1.31-1.76,2.7-3.14,4.18-4.16,1.48-1.01,3.15-1.52,5-1.52,2.82,0,4.88.95,6.19,2.84,1.31,1.89,1.91,4.09,1.81,6.6-.1,2.51-.95,4.82-2.53,6.93l-24.86,33.91.1-10.03,26.1,37.87c1.79,2.64,2.68,5.3,2.68,7.98s-.72,4.93-2.17,6.73-3.51,2.71-6.19,2.71c-2.34,0-4.21-.62-5.62-1.85-1.41-1.23-2.91-3.04-4.49-5.41l-25.28-36.16h-.21v31.01c0,3.87-.81,6.91-2.42,9.1-1.62,2.2-3.94,3.3-6.96,3.3Z"/>
      <path class="cls-1" d="M96.3,497.75c-3.23,0-5.69-1.08-7.38-3.23-1.69-2.16-2.53-5.3-2.53-9.44v-67.69c0-4.13.84-7.28,2.53-9.43,1.68-2.16,4.14-3.23,7.38-3.23h35.08c2.34,0,4.14.79,5.42,2.38,1.27,1.58,1.91,3.87,1.91,6.86s-.64,5.43-1.91,7.06c-1.27,1.63-3.08,2.44-5.42,2.44h-26.93v17.68h24.55c2.41,0,4.23.79,5.47,2.38,1.24,1.58,1.86,3.92,1.86,6.99s-.62,5.3-1.86,6.93c-1.24,1.63-3.06,2.44-5.47,2.44h-24.55v19.13h26.93c2.34,0,4.14.81,5.42,2.44,1.27,1.63,1.91,3.94,1.91,6.93s-.64,5.41-1.91,6.99c-1.27,1.58-3.08,2.38-5.42,2.38h-35.08Z"/>
      <path class="cls-1" d="M159.33,499.07c-3.09,0-5.47-1.1-7.12-3.3-1.65-2.2-2.48-5.23-2.48-9.1v-69.54c0-4.05.84-7.13,2.53-9.24,1.68-2.11,4.07-3.17,7.17-3.17h25.38c8.18,0,14.51,2.57,18.98,7.72,4.47,5.15,6.71,12.29,6.71,21.44,0,5.98-1,11.13-2.99,15.44-2,4.31-4.92,7.63-8.77,9.96-3.85,2.33-8.49,3.5-13.93,3.5l.72-2.38h5.06c2.89,0,5.47.9,7.74,2.71,2.27,1.8,4.16,4.55,5.67,8.25l5.06,11.88c1.17,2.64,1.7,5.15,1.6,7.52-.1,2.38-.83,4.35-2.17,5.94-1.34,1.58-3.42,2.38-6.24,2.38-2.61,0-4.76-.71-6.45-2.11-1.69-1.41-3.18-3.61-4.49-6.6l-9.39-22.3c-.83-1.85-1.87-3.14-3.15-3.89-1.27-.75-2.73-1.12-4.38-1.12h-5.67v23.62c0,3.87-.81,6.91-2.42,9.1-1.62,2.2-3.94,3.3-6.96,3.3ZM168.72,445.89h12.59c3.64,0,6.41-.92,8.3-2.77,1.89-1.85,2.84-4.66,2.84-8.45s-.95-6.73-2.84-8.58c-1.89-1.85-4.66-2.77-8.3-2.77h-12.59v22.56Z"/>
      <path class="cls-1" d="M247.23,499.07c-3.09,0-5.47-1.1-7.12-3.3-1.65-2.2-2.48-5.23-2.48-9.1v-62.15h-16.2c-2.54,0-4.49-.88-5.83-2.64-1.34-1.76-2.01-4.22-2.01-7.39s.67-5.58,2.01-7.26c1.34-1.67,3.28-2.51,5.83-2.51h51.37c2.61,0,4.57.84,5.88,2.51,1.31,1.67,1.96,4.09,1.96,7.26s-.65,5.74-1.96,7.46c-1.31,1.71-3.27,2.57-5.88,2.57h-16.2v62.15c0,3.87-.79,6.91-2.37,9.1-1.58,2.2-3.92,3.3-7.01,3.3Z"/>
      <path class="cls-1" d="M281.17,498.93c-2.68.09-4.76-.86-6.24-2.84-1.48-1.98-2.22-4.51-2.22-7.59,0-2.38.52-4.44,1.55-6.2,1.03-1.76,2.58-2.68,4.64-2.77l2.89-.4c2.54-.18,4.38-.97,5.52-2.38,1.13-1.41,1.7-3.65,1.7-6.73v-54.23c0-4.04.83-7.12,2.48-9.24,1.65-2.11,3.99-3.17,7.02-3.17s5.45,1.06,7.07,3.17c1.62,2.11,2.42,5.19,2.42,9.24v53.84c0,6.07-.86,11.2-2.58,15.37-1.72,4.18-4.28,7.37-7.69,9.57-3.41,2.2-7.65,3.52-12.74,3.96l-3.82.4Z"/>
      <path class="cls-1" d="M331,497.75c-3.23,0-5.69-1.08-7.38-3.23-1.69-2.16-2.53-5.3-2.53-9.44v-67.69c0-4.13.84-7.28,2.53-9.43,1.68-2.16,4.14-3.23,7.38-3.23h35.08c2.34,0,4.14.79,5.42,2.38,1.27,1.58,1.91,3.87,1.91,6.86s-.64,5.43-1.91,7.06c-1.27,1.63-3.08,2.44-5.42,2.44h-26.93v17.68h24.55c2.41,0,4.23.79,5.47,2.38s1.86,3.92,1.86,6.99-.62,5.3-1.86,6.93c-1.24,1.63-3.06,2.44-5.47,2.44h-24.55v19.13h26.93c2.34,0,4.14.81,5.42,2.44,1.27,1.63,1.91,3.94,1.91,6.93s-.64,5.41-1.91,6.99c-1.27,1.58-3.08,2.38-5.42,2.38h-35.08Z"/>
      <path class="cls-1" d="M410.53,499.33c-2.82,0-5.71-.26-8.67-.79-2.96-.53-5.79-1.27-8.51-2.24-2.72-.97-5.14-2.11-7.27-3.43-1.86-1.14-3.16-2.68-3.92-4.62-.76-1.93-1.03-3.94-.83-6,.21-2.07.79-3.91,1.75-5.54.96-1.63,2.23-2.73,3.82-3.3,1.58-.57,3.37-.28,5.37.86,2.61,1.58,5.57,2.84,8.87,3.76,3.3.92,6.43,1.39,9.39,1.39,4.47,0,7.62-.81,9.44-2.44,1.82-1.63,2.73-3.54,2.73-5.74,0-2.02-.64-3.65-1.91-4.88-1.27-1.23-3.52-2.29-6.76-3.17l-12.07-3.3c-6.67-1.85-11.61-4.95-14.8-9.3-3.2-4.35-4.8-10.01-4.8-16.96,0-4.66.76-8.84,2.27-12.54,1.51-3.69,3.61-6.86,6.29-9.5,2.68-2.64,5.91-4.71,9.7-6.2,3.78-1.5,7.94-2.24,12.48-2.24,3.58,0,7.2.53,10.88,1.58,3.68,1.06,6.86,2.6,9.54,4.62,1.58,1.06,2.73,2.53,3.46,4.42.72,1.89,1,3.81.83,5.74-.17,1.94-.72,3.65-1.65,5.15-.93,1.5-2.17,2.49-3.71,2.97-1.55.48-3.39.15-5.52-.99-2.06-1.14-4.33-2.02-6.81-2.64-2.48-.61-4.88-.92-7.22-.92-2.54,0-4.71.4-6.5,1.19-1.79.79-3.15,1.89-4.08,3.3-.93,1.41-1.39,3.04-1.39,4.88s.62,3.41,1.86,4.68c1.24,1.28,3.44,2.31,6.6,3.1l11.97,3.3c6.67,1.85,11.66,4.91,14.96,9.17,3.3,4.27,4.95,9.79,4.95,16.56,0,4.58-.72,8.69-2.17,12.34-1.44,3.65-3.53,6.82-6.24,9.5-2.72,2.68-5.95,4.73-9.7,6.14-3.75,1.41-7.96,2.11-12.64,2.11Z"/>
    </g>
  </g>
  <g id="Layer_4" data-name="Layer 4">
    <g>
      <g>
        <polygon class="cls-6" points="345.07 241.24 258.92 191.5 172.77 241.24 258.92 290.97 345.07 241.24"/>
        <path class="cls-3" d="M258.92,292.98c-.35,0-.69-.09-1-.27l-86.15-49.74c-.62-.36-1-1.02-1-1.73s.38-1.38,1-1.73l86.15-49.74c.62-.36,1.38-.36,2,0l86.15,49.74c.62.36,1,1.02,1,1.73s-.38,1.38-1,1.73l-86.15,49.74c-.31.18-.65.27-1,.27ZM176.77,241.24l82.15,47.43,82.15-47.43-82.15-47.43-82.15,47.43Z"/>
      </g>
      <g>
        <polygon class="cls-5" points="172.77 241.24 172.77 340.71 258.92 390.45 258.92 290.97 172.77 241.24"/>
        <path class="cls-3" d="M258.92,392.45c-.35,0-.69-.09-1-.27l-86.15-49.74c-.62-.36-1-1.02-1-1.73v-99.48c0-.71.38-1.38,1-1.73.62-.36,1.38-.36,2,0l86.15,49.74c.62.36,1,1.02,1,1.73v99.48c0,.71-.38,1.38-1,1.73-.31.18-.65.27-1,.27ZM174.77,339.56l82.15,47.43v-94.86l-82.15-47.43v94.86Z"/>
      </g>
      <g>
        <polygon class="cls-4" points="258.92 290.97 258.92 390.45 345.07 340.71 345.07 241.24 258.92 290.97"/>
        <path class="cls-3" d="M258.92,392.45c-.35,0-.69-.09-1-.27-.62-.36-1-1.02-1-1.73v-99.48c0-.71.38-1.38,1-1.73l86.15-49.74c.62-.36,1.38-.36,2,0,.62.36,1,1.02,1,1.73v99.48c0,.71-.38,1.38-1,1.73l-86.15,49.74c-.31.18-.65.27-1,.27ZM260.92,292.13v94.86l82.15-47.43v-94.86l-82.15,47.43Z"/>
      </g>
    </g>
  </g>
</svg>